<svg xmlns="http://www.w3.org/2000/svg" width="130" height="131" viewBox="0 0 130 131" fill="none"><g id="Icon" clip-path="url(#clip0_26_174)"><g id="Clip path group"><mask id="mask0_26_174" style="mask-type:luminance" maskUnits="userSpaceOnUse" x="0" y="0" width="130" height="131"><g id="clip0"><path id="Vector" d="M130 0H0V131H130V0Z" fill="white"></path></g></mask><g mask="url(#mask0_26_174)"><g id="Group"><path id="Vector_2" d="M45.127 73.6705H32.01V57.3288H45.127V73.6705Z" fill="white"></path><path id="Vector_3" d="M71.639 73.6712V40.9874H58.5073V73.6712" fill="white"></path><path id="Vector_4" d="M98.809 73.6708H85.6918V24.6305H98.809V73.6708Z" fill="white"></path><path id="Vector_5" d="M9.38809 0.110748C4.32847 0.110748 0.21936 4.25146 0.21936 9.35003V88.6131H13.3217V13.5939L116.635 13.5202V84.5758L11.1136 84.6492V98.0439H59.034V114.548H32.6682V130.89H97.5656V114.548H71.2002V98.0439H120.699C125.745 98.0439 130.015 93.5052 130.015 88.4217V0.110748H9.38809Z" fill="url(#paint0_radial_26_174)"></path><path id="Vector_6" d="M13.5118 98.2499H2.28882e-05L2.28882e-05 84.6344H13.5118L13.5118 98.2499Z" fill="white"></path></g></g></g></g><defs><radialGradient id="paint0_radial_26_174" cx="0" cy="0" r="1" gradientUnits="userSpaceOnUse" gradientTransform="translate(8.18898 91.398) scale(25.9415 26.141)"><stop stop-color="#00C7FD" stop-opacity="0"></stop><stop offset="0.15" stop-color="#00C7FD" stop-opacity="0.01"></stop><stop offset="0.28" stop-color="#00C7FD" stop-opacity="0.05"></stop><stop offset="0.4" stop-color="#00C7FD" stop-opacity="0.12"></stop><stop offset="0.52" stop-color="#00C7FD" stop-opacity="0.22"></stop><stop offset="0.63" stop-color="#00C7FD" stop-opacity="0.35"></stop><stop offset="0.74" stop-color="#00C7FD" stop-opacity="0.5"></stop><stop offset="0.85" stop-color="#00C7FD" stop-opacity="0.69"></stop><stop offset="0.95" stop-color="#00C7FD" stop-opacity="0.89"></stop><stop offset="1" stop-color="#00C7FD"></stop></radialGradient><clipPath id="clip0_26_174"><rect width="130" height="131" fill="white"></rect></clipPath></defs></svg>